<?xml version="1.0" encoding="UTF-8"?>
<svg xmlns="http://www.w3.org/2000/svg" xmlns:xlink="http://www.w3.org/1999/xlink" width="2400px" height="2400px" viewBox="0 0 891 1002" version="1.1">
<g id="surface1">
<path style="fill:none;stroke-width:6;stroke-linecap:butt;stroke-linejoin:miter;stroke:rgb(40%,30.980392%,29.803922%);stroke-opacity:1;stroke-miterlimit:10;" d="M 2.00249 302.00106 L 2401.99751 302.00106 " transform="matrix(0.370632,0,0,0.370562,0,0)"/>
<path style="fill:none;stroke-width:6;stroke-linecap:butt;stroke-linejoin:miter;stroke:rgb(40%,30.980392%,29.803922%);stroke-opacity:1;stroke-miterlimit:10;" d="M 2.00249 601.999251 L 2401.99751 601.999251 " transform="matrix(0.370632,0,0,0.370562,0,0)"/>
<path style="fill:none;stroke-width:6;stroke-linecap:butt;stroke-linejoin:miter;stroke:rgb(40%,30.980392%,29.803922%);stroke-opacity:1;stroke-miterlimit:10;" d="M 2.00249 901.997443 L 2401.99751 901.997443 " transform="matrix(0.370632,0,0,0.370562,0,0)"/>
<path style="fill:none;stroke-width:6;stroke-linecap:butt;stroke-linejoin:miter;stroke:rgb(40%,30.980392%,29.803922%);stroke-opacity:1;stroke-miterlimit:10;" d="M 2.00249 1201.995634 L 2401.99751 1201.995634 " transform="matrix(0.370632,0,0,0.370562,0,0)"/>
<path style="fill:none;stroke-width:6;stroke-linecap:butt;stroke-linejoin:miter;stroke:rgb(40%,30.980392%,29.803922%);stroke-opacity:1;stroke-miterlimit:10;" d="M 2.00249 1502.004366 L 2401.99751 1502.004366 " transform="matrix(0.370632,0,0,0.370562,0,0)"/>
<path style="fill:none;stroke-width:6;stroke-linecap:butt;stroke-linejoin:miter;stroke:rgb(40%,30.980392%,29.803922%);stroke-opacity:1;stroke-miterlimit:10;" d="M 2.00249 1802.002557 L 2401.99751 1802.002557 " transform="matrix(0.370632,0,0,0.370562,0,0)"/>
<path style="fill:none;stroke-width:6;stroke-linecap:butt;stroke-linejoin:miter;stroke:rgb(40%,30.980392%,29.803922%);stroke-opacity:1;stroke-miterlimit:10;" d="M 2.00249 2102.000749 L 2401.99751 2102.000749 " transform="matrix(0.370632,0,0,0.370562,0,0)"/>
<path style="fill:none;stroke-width:6;stroke-linecap:butt;stroke-linejoin:miter;stroke:rgb(40%,30.980392%,29.803922%);stroke-opacity:1;stroke-miterlimit:10;" d="M 2.00249 2401.99894 L 2401.99751 2401.99894 " transform="matrix(0.370632,0,0,0.370562,0,0)"/>
<path style="fill:none;stroke-width:6;stroke-linecap:butt;stroke-linejoin:miter;stroke:rgb(40%,30.980392%,29.803922%);stroke-opacity:1;stroke-miterlimit:10;" d="M 2.00249 2.002869 L 2401.99751 2.002869 L 2401.99751 2701.997131 L 2.00249 2701.997131 Z M 2.00249 2.002869 " transform="matrix(0.370632,0,0,0.370562,0,0)"/>
<path style="fill:none;stroke-width:6;stroke-linecap:butt;stroke-linejoin:miter;stroke:rgb(40%,30.980392%,29.803922%);stroke-opacity:1;stroke-miterlimit:10;" d="M 301.996598 1502.004366 L 301.996598 2701.997131 " transform="matrix(0.370632,0,0,0.370562,0,0)"/>
<path style="fill:none;stroke-width:6;stroke-linecap:butt;stroke-linejoin:miter;stroke:rgb(40%,30.980392%,29.803922%);stroke-opacity:1;stroke-miterlimit:10;" d="M 301.996598 2.002869 L 301.996598 1201.995634 " transform="matrix(0.370632,0,0,0.370562,0,0)"/>
<path style="fill:none;stroke-width:6;stroke-linecap:butt;stroke-linejoin:miter;stroke:rgb(40%,30.980392%,29.803922%);stroke-opacity:1;stroke-miterlimit:10;" d="M 602.001245 1502.004366 L 602.001245 2701.997131 " transform="matrix(0.370632,0,0,0.370562,0,0)"/>
<path style="fill:none;stroke-width:6;stroke-linecap:butt;stroke-linejoin:miter;stroke:rgb(40%,30.980392%,29.803922%);stroke-opacity:1;stroke-miterlimit:10;" d="M 602.001245 2.002869 L 602.001245 1201.995634 " transform="matrix(0.370632,0,0,0.370562,0,0)"/>
<path style="fill:none;stroke-width:6;stroke-linecap:butt;stroke-linejoin:bevel;stroke:rgb(40%,30.980392%,29.803922%);stroke-opacity:1;stroke-miterlimit:4;" d="M 901.995353 1502.004366 L 901.995353 2701.997131 L 1502.004647 2102.000749 " transform="matrix(0.370632,0,0,0.370562,0,0)"/>
<path style="fill:none;stroke-width:6;stroke-linecap:butt;stroke-linejoin:bevel;stroke:rgb(40%,30.980392%,29.803922%);stroke-opacity:1;stroke-miterlimit:4;" d="M 901.995353 1201.995634 L 901.995353 2.002869 L 1502.004647 601.999251 " transform="matrix(0.370632,0,0,0.370562,0,0)"/>
<path style="fill:none;stroke-width:6;stroke-linecap:butt;stroke-linejoin:miter;stroke:rgb(40%,30.980392%,29.803922%);stroke-opacity:1;stroke-miterlimit:10;" d="M 1202 1502.004366 L 1202 2701.997131 " transform="matrix(0.370632,0,0,0.370562,0,0)"/>
<path style="fill:none;stroke-width:6;stroke-linecap:butt;stroke-linejoin:miter;stroke:rgb(40%,30.980392%,29.803922%);stroke-opacity:1;stroke-miterlimit:10;" d="M 1202 1201.995634 L 1202 2.002869 " transform="matrix(0.370632,0,0,0.370562,0,0)"/>
<path style="fill:none;stroke-width:6;stroke-linecap:butt;stroke-linejoin:bevel;stroke:rgb(40%,30.980392%,29.803922%);stroke-opacity:1;stroke-miterlimit:4;" d="M 901.995353 2102.000749 L 1502.004647 2701.997131 L 1502.004647 1502.004366 " transform="matrix(0.370632,0,0,0.370562,0,0)"/>
<path style="fill:none;stroke-width:6;stroke-linecap:butt;stroke-linejoin:bevel;stroke:rgb(40%,30.980392%,29.803922%);stroke-opacity:1;stroke-miterlimit:4;" d="M 1502.004647 1201.995634 L 1502.004647 2.002869 L 901.995353 601.999251 " transform="matrix(0.370632,0,0,0.370562,0,0)"/>
<path style="fill:none;stroke-width:6;stroke-linecap:butt;stroke-linejoin:miter;stroke:rgb(40%,30.980392%,29.803922%);stroke-opacity:1;stroke-miterlimit:10;" d="M 1801.998755 1502.004366 L 1801.998755 2701.997131 " transform="matrix(0.370632,0,0,0.370562,0,0)"/>
<path style="fill:none;stroke-width:6;stroke-linecap:butt;stroke-linejoin:miter;stroke:rgb(40%,30.980392%,29.803922%);stroke-opacity:1;stroke-miterlimit:10;" d="M 1801.998755 1201.995634 L 1801.998755 2.002869 " transform="matrix(0.370632,0,0,0.370562,0,0)"/>
<path style="fill:none;stroke-width:6;stroke-linecap:butt;stroke-linejoin:miter;stroke:rgb(40%,30.980392%,29.803922%);stroke-opacity:1;stroke-miterlimit:10;" d="M 2102.003402 1502.004366 L 2102.003402 2701.997131 " transform="matrix(0.370632,0,0,0.370562,0,0)"/>
<path style="fill:none;stroke-width:6;stroke-linecap:butt;stroke-linejoin:miter;stroke:rgb(40%,30.980392%,29.803922%);stroke-opacity:1;stroke-miterlimit:10;" d="M 2102.003402 2.002869 L 2102.003402 1201.995634 " transform="matrix(0.370632,0,0,0.370562,0,0)"/>
<path style=" stroke:none;fill-rule:nonzero;fill:rgb(71.764706%,63.921569%,65.882353%);fill-opacity:1;" d="M 718.386719 498.722656 L 723 491.25 L 725.28125 491.25 L 719.53125 500.390625 L 714.625 508.355469 L 712.339844 508.355469 L 718.390625 498.722656 Z M 718.457031 500.664062 L 718.105469 500.097656 L 712.480469 491.253906 L 714.765625 491.253906 L 719.234375 498.433594 L 719.585938 498.984375 L 725.539062 508.359375 L 723.253906 508.359375 L 718.457031 500.667969 Z M 718.457031 500.664062 "/>
<path style=" stroke:none;fill-rule:nonzero;fill:rgb(71.764706%,63.921569%,65.882353%);fill-opacity:1;" d="M 730.117188 508.355469 L 728.070312 508.355469 L 728.070312 491.25 L 730.117188 491.25 Z M 730.117188 508.355469 "/>
<path style=" stroke:none;fill-rule:nonzero;fill:rgb(71.764706%,63.921569%,65.882353%);fill-opacity:1;" d="M 739.1875 491.25 L 741.234375 491.25 L 747.542969 508.355469 L 745.308594 508.355469 L 740.210938 493.792969 L 735.117188 508.355469 L 732.878906 508.355469 Z M 735.789062 502.476562 L 744.792969 502.476562 L 744.792969 504.40625 L 735.789062 504.40625 Z M 735.789062 502.476562 "/>
<path style=" stroke:none;fill-rule:nonzero;fill:rgb(71.764706%,63.921569%,65.882353%);fill-opacity:1;" d="M 750.128906 491.25 L 752.070312 491.25 L 761.226562 505.570312 L 760.734375 505.488281 L 760.734375 491.253906 L 762.769531 491.253906 L 762.769531 508.347656 L 760.804688 508.347656 L 751.566406 494.066406 L 752.167969 494.253906 L 752.167969 508.347656 L 750.132812 508.347656 L 750.132812 491.253906 Z M 750.128906 491.25 "/>
<path style=" stroke:none;fill-rule:nonzero;fill:rgb(71.764706%,63.921569%,65.882353%);fill-opacity:1;" d="M 778.699219 499.378906 L 778.699219 502.132812 C 778.699219 503.484375 778.464844 504.640625 777.996094 505.597656 C 777.53125 506.558594 776.847656 507.289062 775.953125 507.785156 C 775.054688 508.28125 773.972656 508.535156 772.710938 508.535156 C 771.445312 508.535156 770.335938 508.300781 769.433594 507.828125 C 768.527344 507.359375 767.835938 506.671875 767.359375 505.769531 C 766.886719 504.867188 766.648438 503.78125 766.648438 502.511719 L 766.648438 497.464844 C 766.648438 496.117188 766.882812 494.964844 767.351562 494.007812 C 767.816406 493.050781 768.5 492.324219 769.394531 491.824219 C 770.292969 491.328125 771.375 491.078125 772.636719 491.078125 C 773.679688 491.078125 774.609375 491.273438 775.425781 491.667969 C 776.242188 492.066406 776.914062 492.644531 777.445312 493.402344 C 777.976562 494.164062 778.347656 495.082031 778.558594 496.15625 L 776.34375 496.15625 C 776.171875 495.476562 775.910156 494.902344 775.554688 494.4375 C 775.203125 493.972656 774.777344 493.621094 774.285156 493.386719 C 773.792969 493.144531 773.242188 493.027344 772.636719 493.027344 C 771.808594 493.027344 771.101562 493.199219 770.515625 493.546875 C 769.929688 493.894531 769.484375 494.398438 769.179688 495.058594 C 768.871094 495.71875 768.722656 496.519531 768.722656 497.460938 L 768.722656 502.507812 C 768.722656 503.378906 768.875 504.117188 769.183594 504.71875 C 769.496094 505.324219 769.949219 505.785156 770.542969 506.101562 C 771.140625 506.421875 771.863281 506.582031 772.710938 506.582031 C 773.554688 506.582031 774.242188 506.417969 774.8125 506.085938 C 775.386719 505.757812 775.824219 505.265625 776.125 504.613281 C 776.425781 503.957031 776.578125 503.144531 776.578125 502.171875 L 776.578125 501.3125 L 772.765625 501.3125 L 772.765625 499.378906 Z M 778.699219 499.378906 "/>
<path style=" stroke:none;fill-rule:nonzero;fill:rgb(71.764706%,63.921569%,65.882353%);fill-opacity:1;" d="M 785.035156 507.773438 C 784.132812 507.265625 783.433594 506.539062 782.953125 505.589844 C 782.472656 504.644531 782.230469 503.519531 782.230469 502.226562 L 782.230469 497.378906 C 782.230469 496.085938 782.472656 494.964844 782.953125 494.015625 C 783.433594 493.066406 784.128906 492.339844 785.035156 491.832031 C 785.945312 491.328125 787.011719 491.074219 788.242188 491.074219 C 789.472656 491.074219 790.542969 491.324219 791.449219 491.832031 C 792.355469 492.339844 793.050781 493.066406 793.53125 494.015625 C 794.011719 494.964844 794.253906 496.085938 794.253906 497.378906 L 794.253906 502.226562 C 794.253906 503.519531 794.011719 504.644531 793.53125 505.589844 C 793.050781 506.539062 792.355469 507.265625 791.449219 507.773438 C 790.542969 508.277344 789.472656 508.535156 788.242188 508.535156 C 787.011719 508.535156 785.941406 508.28125 785.035156 507.773438 Z M 790.34375 506.054688 C 790.9375 505.714844 791.390625 505.222656 791.707031 504.582031 C 792.027344 503.945312 792.1875 503.1875 792.1875 502.308594 L 792.1875 497.296875 C 792.1875 496.417969 792.027344 495.660156 791.707031 495.023438 C 791.390625 494.386719 790.9375 493.894531 790.34375 493.550781 C 789.75 493.210938 789.050781 493.039062 788.242188 493.039062 C 787.433594 493.039062 786.734375 493.210938 786.140625 493.550781 C 785.546875 493.894531 785.09375 494.382812 784.777344 495.023438 C 784.457031 495.664062 784.296875 496.417969 784.296875 497.296875 L 784.296875 502.308594 C 784.296875 503.1875 784.457031 503.945312 784.777344 504.582031 C 785.09375 505.222656 785.546875 505.714844 786.140625 506.054688 C 786.734375 506.394531 787.433594 506.566406 788.242188 506.566406 C 789.050781 506.566406 789.75 506.394531 790.34375 506.054688 Z M 788.207031 503.613281 L 789.300781 502.238281 L 795.679688 507.246094 L 794.585938 508.636719 Z M 788.207031 503.613281 "/>
<path style=" stroke:none;fill-rule:nonzero;fill:rgb(71.764706%,63.921569%,65.882353%);fill-opacity:1;" d="M 800.644531 508.355469 L 798.597656 508.355469 L 798.597656 491.25 L 800.644531 491.25 Z M 800.644531 508.355469 "/>
<path style=" stroke:none;fill-rule:nonzero;fill:rgb(71.764706%,63.921569%,65.882353%);fill-opacity:1;" d="M 804.644531 506.308594 L 806.6875 506.308594 L 806.6875 508.355469 L 804.644531 508.355469 Z M 804.644531 506.308594 "/>
<path style=" stroke:none;fill-rule:nonzero;fill:rgb(71.764706%,63.921569%,65.882353%);fill-opacity:1;" d="M 812.285156 507.746094 C 811.386719 507.21875 810.691406 506.472656 810.199219 505.507812 C 809.707031 504.546875 809.457031 503.425781 809.457031 502.15625 L 809.457031 497.460938 C 809.457031 496.191406 809.707031 495.074219 810.199219 494.109375 C 810.691406 493.144531 811.386719 492.394531 812.285156 491.867188 C 813.183594 491.335938 814.222656 491.074219 815.410156 491.074219 C 816.390625 491.074219 817.292969 491.277344 818.113281 491.683594 C 818.9375 492.089844 819.628906 492.671875 820.179688 493.425781 C 820.730469 494.179688 821.105469 495.046875 821.300781 496.039062 L 819.230469 496.039062 C 819.054688 495.449219 818.777344 494.925781 818.390625 494.46875 C 818 494.007812 817.542969 493.652344 817.027344 493.402344 C 816.503906 493.152344 815.964844 493.027344 815.40625 493.027344 C 814.632812 493.027344 813.949219 493.210938 813.363281 493.578125 C 812.777344 493.949219 812.324219 494.464844 812.003906 495.128906 C 811.679688 495.796875 811.523438 496.570312 811.523438 497.460938 L 811.523438 502.15625 C 811.523438 503.035156 811.679688 503.808594 812.003906 504.480469 C 812.324219 505.148438 812.777344 505.667969 813.363281 506.03125 C 813.949219 506.394531 814.628906 506.582031 815.40625 506.582031 C 815.96875 506.582031 816.511719 506.460938 817.027344 506.230469 C 817.546875 505.996094 818 505.648438 818.390625 505.195312 C 818.777344 504.742188 819.054688 504.199219 819.230469 503.570312 L 821.300781 503.570312 C 821.105469 504.5625 820.730469 505.433594 820.171875 506.183594 C 819.613281 506.9375 818.921875 507.519531 818.101562 507.925781 C 817.277344 508.332031 816.375 508.539062 815.40625 508.539062 C 814.21875 508.539062 813.183594 508.273438 812.28125 507.746094 Z M 812.285156 507.746094 "/>
<path style=" stroke:none;fill-rule:nonzero;fill:rgb(71.764706%,63.921569%,65.882353%);fill-opacity:1;" d="M 827.167969 507.773438 C 826.265625 507.265625 825.570312 506.539062 825.085938 505.589844 C 824.605469 504.644531 824.363281 503.519531 824.363281 502.226562 L 824.363281 497.378906 C 824.363281 496.085938 824.605469 494.964844 825.085938 494.015625 C 825.570312 493.066406 826.261719 492.339844 827.167969 491.832031 C 828.078125 491.328125 829.144531 491.074219 830.375 491.074219 C 831.605469 491.074219 832.675781 491.324219 833.582031 491.832031 C 834.488281 492.339844 835.183594 493.066406 835.664062 494.015625 C 836.144531 494.964844 836.386719 496.085938 836.386719 497.378906 L 836.386719 502.226562 C 836.386719 503.519531 836.144531 504.644531 835.664062 505.589844 C 835.183594 506.539062 834.488281 507.265625 833.582031 507.773438 C 832.675781 508.277344 831.605469 508.535156 830.375 508.535156 C 829.144531 508.535156 828.074219 508.28125 827.167969 507.773438 Z M 832.476562 506.054688 C 833.070312 505.714844 833.527344 505.222656 833.839844 504.582031 C 834.160156 503.945312 834.320312 503.1875 834.320312 502.308594 L 834.320312 497.296875 C 834.320312 496.417969 834.160156 495.660156 833.839844 495.023438 C 833.523438 494.386719 833.070312 493.894531 832.476562 493.550781 C 831.882812 493.210938 831.183594 493.039062 830.375 493.039062 C 829.566406 493.039062 828.867188 493.210938 828.273438 493.550781 C 827.679688 493.894531 827.226562 494.382812 826.910156 495.023438 C 826.589844 495.664062 826.433594 496.417969 826.433594 497.296875 L 826.433594 502.308594 C 826.433594 503.1875 826.589844 503.945312 826.910156 504.582031 C 827.230469 505.222656 827.679688 505.714844 828.273438 506.054688 C 828.867188 506.394531 829.566406 506.566406 830.375 506.566406 C 831.183594 506.566406 831.882812 506.394531 832.476562 506.054688 Z M 832.476562 506.054688 "/>
<path style=" stroke:none;fill-rule:nonzero;fill:rgb(71.764706%,63.921569%,65.882353%);fill-opacity:1;" d="M 852.800781 491.25 L 854.816406 491.25 L 854.816406 508.355469 L 852.800781 508.355469 L 852.800781 494.605469 L 852.945312 495.355469 L 848.261719 505.980469 L 846.828125 505.980469 L 842.144531 495.59375 L 842.285156 494.605469 L 842.285156 508.355469 L 840.273438 508.355469 L 840.273438 491.25 L 842.285156 491.25 L 847.542969 503.074219 Z M 852.800781 491.25 "/>
<path style=" stroke:none;fill-rule:nonzero;fill:rgb(71.764706%,63.921569%,65.882353%);fill-opacity:1;" d="M 35.761719 494.304688 C 36.828125 494.367188 37.894531 494.398438 38.960938 494.398438 C 38.960938 491.949219 38.925781 490.320312 38.867188 489.5 L 40.84375 489.5 C 40.78125 490.378906 40.75 492.011719 40.75 494.398438 C 42.070312 494.398438 43.132812 494.367188 43.949219 494.304688 L 43.949219 495.90625 C 43.195312 495.839844 42.128906 495.8125 40.75 495.8125 L 40.75 499.386719 C 41.25 499.074219 41.691406 498.699219 42.070312 498.257812 C 42.886719 499.324219 43.609375 500.390625 44.234375 501.457031 C 43.792969 501.644531 43.292969 501.988281 42.730469 502.488281 C 42.289062 501.613281 41.632812 500.542969 40.753906 499.289062 L 40.753906 506.347656 C 40.753906 507.351562 40.785156 508.667969 40.847656 510.300781 L 38.871094 510.300781 C 38.933594 508.671875 38.964844 507.386719 38.964844 506.445312 L 38.964844 500.324219 C 38.710938 501.078125 38.367188 501.910156 37.929688 502.820312 C 37.488281 503.730469 36.988281 504.714844 36.425781 505.785156 C 35.984375 504.90625 35.546875 504.28125 35.105469 503.902344 C 35.484375 503.402344 35.921875 502.742188 36.425781 501.925781 C 36.925781 501.109375 37.367188 500.136719 37.746094 499.011719 C 38.125 497.878906 38.464844 496.816406 38.777344 495.808594 C 37.585938 495.808594 36.582031 495.839844 35.765625 495.902344 L 35.765625 494.300781 Z M 45.269531 490.917969 L 55.808594 490.917969 C 55.746094 492.300781 55.71875 493.742188 55.71875 495.246094 L 55.71875 505.503906 C 55.71875 507.007812 55.746094 508.542969 55.808594 510.113281 L 53.925781 510.113281 L 53.925781 508.417969 L 47.148438 508.417969 L 47.148438 510.300781 L 45.265625 510.300781 C 45.328125 508.480469 45.359375 506.945312 45.359375 505.691406 L 45.359375 495.152344 C 45.359375 493.648438 45.324219 492.234375 45.265625 490.917969 Z M 47.152344 492.328125 L 47.152344 496.28125 L 53.929688 496.28125 L 53.929688 492.328125 Z M 47.152344 497.695312 L 47.152344 501.363281 L 53.929688 501.363281 L 53.929688 497.695312 Z M 47.152344 502.773438 L 47.152344 507.011719 L 53.929688 507.011719 L 53.929688 502.773438 Z M 47.152344 502.773438 "/>
<path style=" stroke:none;fill-rule:nonzero;fill:rgb(71.764706%,63.921569%,65.882353%);fill-opacity:1;" d="M 61.929688 510.773438 C 61.550781 510.207031 61.113281 509.703125 60.609375 509.265625 C 62.113281 508.890625 63.351562 508.390625 64.328125 507.761719 C 65.296875 507.136719 65.878906 506.226562 66.070312 505.03125 L 63.433594 505.03125 C 62.242188 505.03125 61.109375 505.066406 60.046875 505.125 L 60.046875 503.429688 C 61.050781 503.492188 62.175781 503.523438 63.433594 503.523438 L 66.257812 503.523438 C 66.257812 502.898438 66.222656 502.203125 66.164062 501.453125 L 68.140625 501.640625 C 68.078125 501.894531 68.046875 502.519531 68.046875 503.523438 L 72.945312 503.523438 C 72.945312 502.960938 72.910156 502.238281 72.851562 501.359375 L 74.828125 501.359375 C 74.765625 502.238281 74.734375 502.960938 74.734375 503.523438 L 77.464844 503.523438 C 78.597656 503.523438 79.628906 503.492188 80.570312 503.429688 L 80.570312 505.125 C 79.628906 505.0625 78.597656 505.03125 77.464844 505.03125 L 74.734375 505.03125 L 74.734375 507.292969 C 74.734375 508.359375 74.765625 509.457031 74.828125 510.585938 L 72.851562 510.585938 C 72.914062 509.394531 72.945312 508.324219 72.945312 507.386719 L 72.945312 505.035156 L 67.863281 505.035156 C 67.671875 506.664062 67.046875 507.875 65.980469 508.660156 C 64.914062 509.445312 63.5625 510.148438 61.933594 510.777344 Z M 62.117188 499.007812 C 61.675781 498.628906 61.175781 498.253906 60.613281 497.875 C 61.679688 496.933594 62.683594 495.746094 63.625 494.300781 C 64.0625 494.679688 64.597656 495.023438 65.226562 495.335938 C 64.847656 495.710938 64.441406 496.199219 64.003906 496.792969 C 63.5625 497.390625 62.9375 498.128906 62.121094 499.007812 Z M 64.753906 502.019531 C 64.4375 501.582031 63.839844 501.140625 62.964844 500.699219 C 64.152344 500.074219 65.050781 499.476562 65.644531 498.910156 C 66.242188 498.347656 66.664062 497.71875 66.917969 497.027344 C 67.164062 496.339844 67.324219 494.925781 67.386719 492.792969 L 64.5625 492.792969 C 63.371094 492.792969 62.175781 492.824219 60.988281 492.882812 L 60.988281 491.191406 C 62.117188 491.253906 63.277344 491.285156 64.472656 491.285156 L 69.648438 491.285156 C 69.523438 490.34375 69.335938 489.589844 69.085938 489.023438 C 69.773438 488.960938 70.433594 488.867188 71.0625 488.742188 C 71.25 489.621094 71.40625 490.46875 71.53125 491.285156 L 76.898438 491.285156 C 77.902344 491.285156 78.90625 491.253906 79.910156 491.191406 L 79.910156 492.882812 C 78.96875 492.820312 77.964844 492.792969 76.898438 492.792969 L 73.699219 492.792969 L 73.699219 498.34375 C 73.699219 499.285156 73.433594 499.847656 72.898438 500.035156 C 72.367188 500.226562 71.566406 500.414062 70.496094 500.601562 C 70.433594 500.222656 70.183594 499.59375 69.746094 498.71875 C 70.933594 498.71875 71.613281 498.625 71.769531 498.4375 C 71.925781 498.246094 72.003906 497.871094 72.003906 497.304688 L 72.003906 492.789062 L 69.085938 492.789062 C 69.085938 494.859375 68.960938 496.347656 68.707031 497.257812 C 68.457031 498.167969 68.019531 499 67.386719 499.75 C 66.761719 500.503906 65.882812 501.253906 64.753906 502.011719 Z M 79.34375 498.160156 C 79.03125 498.351562 78.53125 498.695312 77.839844 499.195312 C 77.023438 497.941406 76.113281 496.6875 75.109375 495.429688 C 75.609375 495.117188 76.050781 494.804688 76.429688 494.488281 C 77.433594 495.683594 78.402344 496.90625 79.34375 498.160156 Z M 79.34375 498.160156 "/>
<path style=" stroke:none;fill-rule:nonzero;fill:rgb(71.764706%,63.921569%,65.882353%);fill-opacity:1;" d="M 93.839844 499.292969 C 93.589844 499.480469 93.398438 499.667969 93.277344 499.855469 C 93.839844 500.417969 94.296875 500.90625 94.640625 501.316406 C 94.984375 501.722656 95.441406 502.242188 96.003906 502.867188 C 96.757812 502.488281 97.445312 502.082031 98.078125 501.644531 C 98.703125 501.207031 99.394531 500.546875 100.148438 499.667969 C 100.648438 500.234375 101.246094 500.703125 101.9375 501.082031 C 101.433594 501.269531 100.492188 501.898438 99.113281 502.964844 C 100.117188 504.847656 101.027344 506.039062 101.847656 506.539062 C 102.660156 507.042969 103.820312 507.453125 105.328125 507.761719 C 104.703125 508.140625 104.234375 508.796875 103.917969 509.738281 C 101.910156 508.984375 100.46875 508.03125 99.589844 506.867188 C 98.710938 505.707031 98.085938 504.652344 97.707031 503.710938 C 97.390625 503.839844 97.011719 504.058594 96.574219 504.371094 C 96.890625 506.128906 96.953125 507.449219 96.765625 508.324219 C 96.574219 509.203125 96.152344 509.816406 95.492188 510.160156 C 94.832031 510.503906 93.8125 510.773438 92.4375 510.960938 C 92.308594 510.207031 92.089844 509.515625 91.777344 508.890625 C 93.40625 508.953125 94.394531 508.714844 94.742188 508.183594 C 95.085938 507.652344 95.195312 506.757812 95.070312 505.503906 C 93.75 506.570312 92.640625 507.355469 91.726562 507.855469 C 90.816406 508.359375 89.90625 508.796875 88.996094 509.175781 C 88.085938 509.550781 86.972656 509.988281 85.652344 510.492188 C 85.402344 509.929688 84.964844 509.363281 84.332031 508.800781 C 85.523438 508.546875 86.59375 508.265625 87.535156 507.953125 C 88.476562 507.636719 89.621094 507.121094 90.972656 506.398438 C 92.320312 505.679688 93.496094 504.816406 94.5 503.8125 C 94.183594 503.375 93.9375 502.996094 93.746094 502.683594 C 93.054688 503.375 92.195312 504.015625 91.160156 504.613281 C 90.125 505.210938 89.167969 505.664062 88.289062 505.976562 C 87.410156 506.292969 86.46875 506.636719 85.464844 507.011719 C 85.273438 506.382812 84.867188 505.820312 84.242188 505.316406 C 85.996094 505.003906 87.347656 504.675781 88.289062 504.328125 C 89.230469 503.984375 90.046875 503.589844 90.734375 503.152344 C 91.425781 502.714844 92.113281 502.183594 92.804688 501.550781 C 92.617188 501.304688 92.398438 501.082031 92.148438 500.890625 C 91.269531 501.398438 90.390625 501.867188 89.511719 502.304688 C 88.632812 502.746094 87.441406 503.152344 85.933594 503.527344 C 85.808594 503.027344 85.371094 502.460938 84.617188 501.832031 C 86.058594 501.585938 87.296875 501.285156 88.332031 500.941406 C 89.367188 500.597656 90.417969 500.046875 91.488281 499.296875 L 86.5 499.296875 C 86.5625 498.355469 86.589844 497.066406 86.589844 495.4375 C 86.210938 495.816406 85.804688 496.160156 85.367188 496.472656 C 84.988281 495.972656 84.457031 495.53125 83.765625 495.152344 C 85.085938 494.464844 86.339844 493.550781 87.53125 492.425781 C 88.722656 491.296875 89.632812 490.136719 90.265625 488.941406 C 90.890625 489.320312 91.707031 489.601562 92.710938 489.789062 C 92.148438 490.230469 91.640625 490.703125 91.207031 491.203125 L 99.867188 491.203125 C 98.546875 492.769531 97.703125 493.835938 97.324219 494.398438 L 102.59375 494.398438 C 102.53125 495.027344 102.503906 495.859375 102.503906 496.894531 C 102.503906 497.929688 102.53125 498.726562 102.59375 499.296875 L 93.839844 499.296875 Z M 89.980469 492.515625 C 89.039062 493.390625 88.316406 494.019531 87.816406 494.398438 L 95.253906 494.398438 C 95.628906 493.769531 96.066406 493.144531 96.570312 492.515625 Z M 88.382812 495.710938 L 88.382812 497.972656 L 92.710938 497.972656 C 93.023438 497.535156 93.398438 496.78125 93.839844 495.710938 Z M 95.628906 495.710938 C 95.378906 496.40625 95.035156 497.15625 94.597656 497.972656 L 100.714844 497.972656 L 100.714844 495.710938 Z M 95.628906 495.710938 "/>
<path style=" stroke:none;fill-rule:nonzero;fill:rgb(71.764706%,63.921569%,65.882353%);fill-opacity:1;" d="M 112.761719 498.351562 C 113.199219 498.160156 113.609375 497.878906 113.984375 497.5 C 114.863281 498.820312 115.523438 499.855469 115.960938 500.605469 C 115.457031 500.859375 114.957031 501.203125 114.453125 501.640625 C 114.203125 500.761719 113.640625 499.757812 112.761719 498.628906 L 112.761719 507.664062 C 112.761719 508.605469 112.789062 509.671875 112.855469 510.859375 L 110.972656 510.859375 C 111.035156 509.855469 111.0625 508.789062 111.0625 507.664062 L 111.0625 499.097656 C 110.371094 501.171875 109.589844 503.019531 108.710938 504.648438 C 108.269531 504.085938 107.769531 503.617188 107.207031 503.238281 C 107.769531 502.613281 108.394531 501.621094 109.089844 500.273438 C 109.777344 498.925781 110.3125 497.28125 110.6875 495.335938 C 109.875 495.335938 108.960938 495.367188 107.957031 495.425781 L 107.957031 493.824219 C 108.960938 493.890625 109.996094 493.917969 111.0625 493.917969 C 111.0625 491.472656 111.03125 489.78125 110.972656 488.839844 L 112.945312 488.839844 C 112.757812 489.714844 112.695312 491.410156 112.757812 493.917969 C 113.445312 493.917969 114.136719 493.890625 114.828125 493.824219 L 114.828125 495.425781 C 114.136719 495.363281 113.445312 495.335938 112.757812 495.335938 L 112.757812 498.347656 Z M 116.054688 491.949219 C 116.808594 492.015625 117.496094 492.042969 118.128906 492.042969 C 118.128906 490.976562 118.09375 489.972656 118.035156 489.03125 L 120.011719 489.03125 C 119.882812 489.910156 119.820312 490.914062 119.820312 492.042969 L 124.808594 492.042969 C 124.808594 490.855469 124.777344 489.816406 124.71875 488.9375 L 126.601562 488.9375 C 126.472656 489.691406 126.445312 490.726562 126.507812 492.042969 C 127.132812 492.042969 127.855469 492.015625 128.671875 491.949219 L 128.671875 493.457031 C 127.921875 493.390625 127.199219 493.363281 126.507812 493.363281 L 126.507812 503.902344 C 127.324219 503.902344 128.265625 503.871094 129.332031 503.808594 L 129.332031 505.3125 C 128.328125 505.25 127.449219 505.21875 126.695312 505.21875 L 117.941406 505.21875 C 116.8125 505.21875 115.777344 505.285156 114.835938 505.410156 L 114.835938 503.808594 C 115.652344 503.871094 116.75 503.902344 118.132812 503.902344 L 118.132812 493.363281 C 117.316406 493.363281 116.625 493.394531 116.058594 493.457031 L 116.058594 491.949219 Z M 116.808594 510.867188 C 116.304688 510.363281 115.804688 509.957031 115.304688 509.644531 C 115.992188 509.332031 116.683594 508.84375 117.375 508.183594 C 118.066406 507.527344 118.695312 506.789062 119.257812 505.972656 C 119.757812 506.351562 120.355469 506.757812 121.046875 507.195312 C 120.484375 507.449219 119.855469 507.933594 119.164062 508.65625 C 118.472656 509.375 117.691406 510.117188 116.8125 510.867188 Z M 119.820312 493.363281 L 119.820312 496.09375 L 124.808594 496.09375 L 124.808594 493.363281 Z M 119.820312 497.410156 L 119.820312 499.953125 L 124.808594 499.953125 L 124.808594 497.410156 Z M 119.820312 501.265625 L 119.820312 503.902344 L 124.808594 503.902344 L 124.808594 501.265625 Z M 123.679688 507.476562 C 124.179688 506.976562 124.558594 506.507812 124.808594 506.066406 C 126.128906 506.816406 127.601562 507.886719 129.234375 509.261719 C 128.671875 509.699219 128.230469 510.171875 127.917969 510.675781 C 126.097656 509.042969 124.683594 507.976562 123.679688 507.476562 Z M 123.679688 507.476562 "/>
<path style="fill:none;stroke-width:6;stroke-linecap:butt;stroke-linejoin:miter;stroke:rgb(40%,30.980392%,29.803922%);stroke-opacity:1;stroke-miterlimit:10;" d="M 247.539404 576.383608 L 276.101238 576.383608 L 276.101238 547.826909 " transform="matrix(0.370632,0,0,0.370562,0,0)"/>
<path style="fill:none;stroke-width:6;stroke-linecap:butt;stroke-linejoin:miter;stroke:rgb(40%,30.980392%,29.803922%);stroke-opacity:1;stroke-miterlimit:10;" d="M 247.539404 627.562188 L 276.101238 627.562188 L 276.101238 656.108346 " transform="matrix(0.370632,0,0,0.370562,0,0)"/>
<path style="fill:none;stroke-width:6;stroke-linecap:butt;stroke-linejoin:miter;stroke:rgb(40%,30.980392%,29.803922%);stroke-opacity:1;stroke-miterlimit:10;" d="M 327.902497 656.108346 L 327.902497 627.562188 L 356.464331 627.562188 " transform="matrix(0.370632,0,0,0.370562,0,0)"/>
<path style="fill:none;stroke-width:6;stroke-linecap:butt;stroke-linejoin:miter;stroke:rgb(40%,30.980392%,29.803922%);stroke-opacity:1;stroke-miterlimit:10;" d="M 356.464331 575.751123 L 327.902497 575.751123 L 327.902497 547.204965 " transform="matrix(0.370632,0,0,0.370562,0,0)"/>
<path style="fill:none;stroke-width:6;stroke-linecap:butt;stroke-linejoin:miter;stroke:rgb(40%,30.980392%,29.803922%);stroke-opacity:1;stroke-miterlimit:10;" d="M 2047.535669 576.383608 L 2076.097503 576.383608 L 2076.097503 547.826909 " transform="matrix(0.370632,0,0,0.370562,0,0)"/>
<path style="fill:none;stroke-width:6;stroke-linecap:butt;stroke-linejoin:miter;stroke:rgb(40%,30.980392%,29.803922%);stroke-opacity:1;stroke-miterlimit:10;" d="M 2047.535669 627.562188 L 2076.097503 627.562188 L 2076.097503 656.108346 " transform="matrix(0.370632,0,0,0.370562,0,0)"/>
<path style="fill:none;stroke-width:6;stroke-linecap:butt;stroke-linejoin:miter;stroke:rgb(40%,30.980392%,29.803922%);stroke-opacity:1;stroke-miterlimit:10;" d="M 2127.898762 656.108346 L 2127.898762 627.562188 L 2156.460596 627.562188 " transform="matrix(0.370632,0,0,0.370562,0,0)"/>
<path style="fill:none;stroke-width:6;stroke-linecap:butt;stroke-linejoin:miter;stroke:rgb(40%,30.980392%,29.803922%);stroke-opacity:1;stroke-miterlimit:10;" d="M 2156.460596 575.751123 L 2127.898762 575.751123 L 2127.898762 547.204965 " transform="matrix(0.370632,0,0,0.370562,0,0)"/>
<path style="fill:none;stroke-width:6;stroke-linecap:butt;stroke-linejoin:miter;stroke:rgb(40%,30.980392%,29.803922%);stroke-opacity:1;stroke-miterlimit:10;" d="M 2347.540316 876.381799 L 2376.10215 876.381799 L 2376.10215 847.8251 " transform="matrix(0.370632,0,0,0.370562,0,0)"/>
<path style="fill:none;stroke-width:6;stroke-linecap:butt;stroke-linejoin:miter;stroke:rgb(40%,30.980392%,29.803922%);stroke-opacity:1;stroke-miterlimit:10;" d="M 2347.540316 927.560379 L 2376.10215 927.560379 L 2376.10215 956.106537 " transform="matrix(0.370632,0,0,0.370562,0,0)"/>
<path style="fill:none;stroke-width:6;stroke-linecap:butt;stroke-linejoin:miter;stroke:rgb(40%,30.980392%,29.803922%);stroke-opacity:1;stroke-miterlimit:10;" d="M 1747.541561 876.381799 L 1776.103395 876.381799 L 1776.103395 847.8251 " transform="matrix(0.370632,0,0,0.370562,0,0)"/>
<path style="fill:none;stroke-width:6;stroke-linecap:butt;stroke-linejoin:miter;stroke:rgb(40%,30.980392%,29.803922%);stroke-opacity:1;stroke-miterlimit:10;" d="M 1747.541561 927.560379 L 1776.103395 927.560379 L 1776.103395 956.106537 " transform="matrix(0.370632,0,0,0.370562,0,0)"/>
<path style="fill:none;stroke-width:6;stroke-linecap:butt;stroke-linejoin:miter;stroke:rgb(40%,30.980392%,29.803922%);stroke-opacity:1;stroke-miterlimit:10;" d="M 1827.904654 956.106537 L 1827.904654 927.560379 L 1856.455948 927.560379 " transform="matrix(0.370632,0,0,0.370562,0,0)"/>
<path style="fill:none;stroke-width:6;stroke-linecap:butt;stroke-linejoin:miter;stroke:rgb(40%,30.980392%,29.803922%);stroke-opacity:1;stroke-miterlimit:10;" d="M 1856.455948 875.749314 L 1827.904654 875.749314 L 1827.904654 847.203156 " transform="matrix(0.370632,0,0,0.370562,0,0)"/>
<path style="fill:none;stroke-width:6;stroke-linecap:butt;stroke-linejoin:miter;stroke:rgb(40%,30.980392%,29.803922%);stroke-opacity:1;stroke-miterlimit:10;" d="M 1147.542807 876.381799 L 1176.10464 876.381799 L 1176.10464 847.8251 " transform="matrix(0.370632,0,0,0.370562,0,0)"/>
<path style="fill:none;stroke-width:6;stroke-linecap:butt;stroke-linejoin:miter;stroke:rgb(40%,30.980392%,29.803922%);stroke-opacity:1;stroke-miterlimit:10;" d="M 1147.542807 927.560379 L 1176.10464 927.560379 L 1176.10464 956.106537 " transform="matrix(0.370632,0,0,0.370562,0,0)"/>
<path style="fill:none;stroke-width:6;stroke-linecap:butt;stroke-linejoin:miter;stroke:rgb(40%,30.980392%,29.803922%);stroke-opacity:1;stroke-miterlimit:10;" d="M 1227.89536 956.106537 L 1227.89536 927.560379 L 1256.457193 927.560379 " transform="matrix(0.370632,0,0,0.370562,0,0)"/>
<path style="fill:none;stroke-width:6;stroke-linecap:butt;stroke-linejoin:miter;stroke:rgb(40%,30.980392%,29.803922%);stroke-opacity:1;stroke-miterlimit:10;" d="M 1256.457193 875.749314 L 1227.89536 875.749314 L 1227.89536 847.203156 " transform="matrix(0.370632,0,0,0.370562,0,0)"/>
<path style="fill:none;stroke-width:6;stroke-linecap:butt;stroke-linejoin:miter;stroke:rgb(40%,30.980392%,29.803922%);stroke-opacity:1;stroke-miterlimit:10;" d="M 547.544052 876.381799 L 576.095346 876.381799 L 576.095346 847.8251 " transform="matrix(0.370632,0,0,0.370562,0,0)"/>
<path style="fill:none;stroke-width:6;stroke-linecap:butt;stroke-linejoin:miter;stroke:rgb(40%,30.980392%,29.803922%);stroke-opacity:1;stroke-miterlimit:10;" d="M 547.544052 927.560379 L 576.095346 927.560379 L 576.095346 956.106537 " transform="matrix(0.370632,0,0,0.370562,0,0)"/>
<path style="fill:none;stroke-width:6;stroke-linecap:butt;stroke-linejoin:miter;stroke:rgb(40%,30.980392%,29.803922%);stroke-opacity:1;stroke-miterlimit:10;" d="M 627.896605 956.106537 L 627.896605 927.560379 L 656.458439 927.560379 " transform="matrix(0.370632,0,0,0.370562,0,0)"/>
<path style="fill:none;stroke-width:6;stroke-linecap:butt;stroke-linejoin:miter;stroke:rgb(40%,30.980392%,29.803922%);stroke-opacity:1;stroke-miterlimit:10;" d="M 656.458439 875.749314 L 627.896605 875.749314 L 627.896605 847.203156 " transform="matrix(0.370632,0,0,0.370562,0,0)"/>
<path style="fill:none;stroke-width:6;stroke-linecap:butt;stroke-linejoin:miter;stroke:rgb(40%,30.980392%,29.803922%);stroke-opacity:1;stroke-miterlimit:10;" d="M 27.89785 956.106537 L 27.89785 927.560379 L 56.459684 927.560379 " transform="matrix(0.370632,0,0,0.370562,0,0)"/>
<path style="fill:none;stroke-width:6;stroke-linecap:butt;stroke-linejoin:miter;stroke:rgb(40%,30.980392%,29.803922%);stroke-opacity:1;stroke-miterlimit:10;" d="M 56.459684 875.749314 L 27.89785 875.749314 L 27.89785 847.203156 " transform="matrix(0.370632,0,0,0.370562,0,0)"/>
<path style="fill:none;stroke-width:6;stroke-linecap:butt;stroke-linejoin:miter;stroke:rgb(40%,30.980392%,29.803922%);stroke-opacity:1;stroke-miterlimit:10;" d="M 2156.460596 2128.312126 L 2127.898762 2128.312126 L 2127.898762 2156.858283 " transform="matrix(0.370632,0,0,0.370562,0,0)"/>
<path style="fill:none;stroke-width:6;stroke-linecap:butt;stroke-linejoin:miter;stroke:rgb(40%,30.980392%,29.803922%);stroke-opacity:1;stroke-miterlimit:10;" d="M 2156.460596 2077.123004 L 2127.898762 2077.123004 L 2127.898762 2048.566305 " transform="matrix(0.370632,0,0,0.370562,0,0)"/>
<path style="fill:none;stroke-width:6;stroke-linecap:butt;stroke-linejoin:miter;stroke:rgb(40%,30.980392%,29.803922%);stroke-opacity:1;stroke-miterlimit:10;" d="M 2076.097503 2048.566305 L 2076.097503 2077.123004 L 2047.535669 2077.123004 " transform="matrix(0.370632,0,0,0.370562,0,0)"/>
<path style="fill:none;stroke-width:6;stroke-linecap:butt;stroke-linejoin:miter;stroke:rgb(40%,30.980392%,29.803922%);stroke-opacity:1;stroke-miterlimit:10;" d="M 2047.535669 2128.934069 L 2076.097503 2128.934069 L 2076.097503 2157.480227 " transform="matrix(0.370632,0,0,0.370562,0,0)"/>
<path style="fill:none;stroke-width:6;stroke-linecap:butt;stroke-linejoin:miter;stroke:rgb(40%,30.980392%,29.803922%);stroke-opacity:1;stroke-miterlimit:10;" d="M 356.464331 2128.312126 L 327.902497 2128.312126 L 327.902497 2156.858283 " transform="matrix(0.370632,0,0,0.370562,0,0)"/>
<path style="fill:none;stroke-width:6;stroke-linecap:butt;stroke-linejoin:miter;stroke:rgb(40%,30.980392%,29.803922%);stroke-opacity:1;stroke-miterlimit:10;" d="M 356.464331 2077.123004 L 327.902497 2077.123004 L 327.902497 2048.566305 " transform="matrix(0.370632,0,0,0.370562,0,0)"/>
<path style="fill:none;stroke-width:6;stroke-linecap:butt;stroke-linejoin:miter;stroke:rgb(40%,30.980392%,29.803922%);stroke-opacity:1;stroke-miterlimit:10;" d="M 276.101238 2048.566305 L 276.101238 2077.123004 L 247.539404 2077.123004 " transform="matrix(0.370632,0,0,0.370562,0,0)"/>
<path style="fill:none;stroke-width:6;stroke-linecap:butt;stroke-linejoin:miter;stroke:rgb(40%,30.980392%,29.803922%);stroke-opacity:1;stroke-miterlimit:10;" d="M 247.539404 2128.934069 L 276.101238 2128.934069 L 276.101238 2157.480227 " transform="matrix(0.370632,0,0,0.370562,0,0)"/>
<path style="fill:none;stroke-width:6;stroke-linecap:butt;stroke-linejoin:miter;stroke:rgb(40%,30.980392%,29.803922%);stroke-opacity:1;stroke-miterlimit:10;" d="M 56.459684 1828.313935 L 27.89785 1828.313935 L 27.89785 1856.860092 " transform="matrix(0.370632,0,0,0.370562,0,0)"/>
<path style="fill:none;stroke-width:6;stroke-linecap:butt;stroke-linejoin:miter;stroke:rgb(40%,30.980392%,29.803922%);stroke-opacity:1;stroke-miterlimit:10;" d="M 56.459684 1777.124813 L 27.89785 1777.124813 L 27.89785 1748.568114 " transform="matrix(0.370632,0,0,0.370562,0,0)"/>
<path style="fill:none;stroke-width:6;stroke-linecap:butt;stroke-linejoin:miter;stroke:rgb(40%,30.980392%,29.803922%);stroke-opacity:1;stroke-miterlimit:10;" d="M 656.458439 1828.313935 L 627.896605 1828.313935 L 627.896605 1856.860092 " transform="matrix(0.370632,0,0,0.370562,0,0)"/>
<path style="fill:none;stroke-width:6;stroke-linecap:butt;stroke-linejoin:miter;stroke:rgb(40%,30.980392%,29.803922%);stroke-opacity:1;stroke-miterlimit:10;" d="M 656.458439 1777.124813 L 627.896605 1777.124813 L 627.896605 1748.568114 " transform="matrix(0.370632,0,0,0.370562,0,0)"/>
<path style="fill:none;stroke-width:6;stroke-linecap:butt;stroke-linejoin:miter;stroke:rgb(40%,30.980392%,29.803922%);stroke-opacity:1;stroke-miterlimit:10;" d="M 576.095346 1748.568114 L 576.095346 1777.124813 L 547.544052 1777.124813 " transform="matrix(0.370632,0,0,0.370562,0,0)"/>
<path style="fill:none;stroke-width:6;stroke-linecap:butt;stroke-linejoin:miter;stroke:rgb(40%,30.980392%,29.803922%);stroke-opacity:1;stroke-miterlimit:10;" d="M 547.544052 1828.925337 L 576.095346 1828.925337 L 576.095346 1857.482036 " transform="matrix(0.370632,0,0,0.370562,0,0)"/>
<path style="fill:none;stroke-width:6;stroke-linecap:butt;stroke-linejoin:miter;stroke:rgb(40%,30.980392%,29.803922%);stroke-opacity:1;stroke-miterlimit:10;" d="M 1256.457193 1828.313935 L 1227.89536 1828.313935 L 1227.89536 1856.860092 " transform="matrix(0.370632,0,0,0.370562,0,0)"/>
<path style="fill:none;stroke-width:6;stroke-linecap:butt;stroke-linejoin:miter;stroke:rgb(40%,30.980392%,29.803922%);stroke-opacity:1;stroke-miterlimit:10;" d="M 1256.457193 1777.124813 L 1227.89536 1777.124813 L 1227.89536 1748.568114 " transform="matrix(0.370632,0,0,0.370562,0,0)"/>
<path style="fill:none;stroke-width:6;stroke-linecap:butt;stroke-linejoin:miter;stroke:rgb(40%,30.980392%,29.803922%);stroke-opacity:1;stroke-miterlimit:10;" d="M 1176.10464 1748.568114 L 1176.10464 1777.124813 L 1147.542807 1777.124813 " transform="matrix(0.370632,0,0,0.370562,0,0)"/>
<path style="fill:none;stroke-width:6;stroke-linecap:butt;stroke-linejoin:miter;stroke:rgb(40%,30.980392%,29.803922%);stroke-opacity:1;stroke-miterlimit:10;" d="M 1147.542807 1828.925337 L 1176.10464 1828.925337 L 1176.10464 1857.482036 " transform="matrix(0.370632,0,0,0.370562,0,0)"/>
<path style="fill:none;stroke-width:6;stroke-linecap:butt;stroke-linejoin:miter;stroke:rgb(40%,30.980392%,29.803922%);stroke-opacity:1;stroke-miterlimit:10;" d="M 1856.455948 1828.313935 L 1827.904654 1828.313935 L 1827.904654 1856.860092 " transform="matrix(0.370632,0,0,0.370562,0,0)"/>
<path style="fill:none;stroke-width:6;stroke-linecap:butt;stroke-linejoin:miter;stroke:rgb(40%,30.980392%,29.803922%);stroke-opacity:1;stroke-miterlimit:10;" d="M 1856.455948 1777.124813 L 1827.904654 1777.124813 L 1827.904654 1748.568114 " transform="matrix(0.370632,0,0,0.370562,0,0)"/>
<path style="fill:none;stroke-width:6;stroke-linecap:butt;stroke-linejoin:miter;stroke:rgb(40%,30.980392%,29.803922%);stroke-opacity:1;stroke-miterlimit:10;" d="M 1776.103395 1748.568114 L 1776.103395 1777.124813 L 1747.541561 1777.124813 " transform="matrix(0.370632,0,0,0.370562,0,0)"/>
<path style="fill:none;stroke-width:6;stroke-linecap:butt;stroke-linejoin:miter;stroke:rgb(40%,30.980392%,29.803922%);stroke-opacity:1;stroke-miterlimit:10;" d="M 1747.541561 1828.925337 L 1776.103395 1828.925337 L 1776.103395 1857.482036 " transform="matrix(0.370632,0,0,0.370562,0,0)"/>
<path style="fill:none;stroke-width:6;stroke-linecap:butt;stroke-linejoin:miter;stroke:rgb(40%,30.980392%,29.803922%);stroke-opacity:1;stroke-miterlimit:10;" d="M 2376.10215 1748.568114 L 2376.10215 1777.124813 L 2347.540316 1777.124813 " transform="matrix(0.370632,0,0,0.370562,0,0)"/>
<path style="fill:none;stroke-width:6;stroke-linecap:butt;stroke-linejoin:miter;stroke:rgb(40%,30.980392%,29.803922%);stroke-opacity:1;stroke-miterlimit:10;" d="M 2347.540316 1828.925337 L 2376.10215 1828.925337 L 2376.10215 1857.482036 " transform="matrix(0.370632,0,0,0.370562,0,0)"/>
</g>
</svg>